<svg xmlns="http://www.w3.org/2000/svg" viewBox="0 0 791.79 533.86"><defs><style>.cls-1{opacity:0.1;}.cls-2{fill:#ef4223;}.cls-3{fill:none;}.cls-4{fill:#00aed6;}.cls-5{fill:#00b7d8;}.cls-6{fill:#fff;}.cls-7{fill:#4b3c51;}.cls-8{fill:#04a2bc;}.cls-9{fill:#3e3244;}.cls-10{fill:#ff988a;}.cls-11{fill:#dd7d73;}.cls-12{fill:#161119;}.cls-13,.cls-21,.cls-23{fill:#26476d;}.cls-13{opacity:0.07;}.cls-14,.cls-15{fill:#0f8754;}.cls-15{opacity:0.11;}.cls-16{opacity:0.38;}.cls-17{fill:#ffce45;}.cls-18{fill:#ffa748;}.cls-19{fill:#e8a17e;}.cls-20{fill:#345d95;}.cls-22{fill:#c5e1f9;}.cls-23{opacity:0.27;}</style></defs><title>contact us</title><g id="Layer_2" data-name="Layer 2"><g id="Ñëîé_1" data-name="Ñëîé 1"><g class="cls-1"><path class="cls-2" d="M130.06,533.86c-45-2.07-89.14-21.16-110.73-54-20-30.35-23.68-77.37-14.75-111.15,7.5-28.36,28.93-52.9,53.36-73.68,49.37-42,113-72.44,154.7-119.79,23.19-26.31,38.62-56.82,60.92-83.66C316.91,39.4,388.7,2.37,465,.1s154.49,33.37,186.21,91c27.28,49.62,20.17,109.75,53.76,156.62,15.44,21.54,38.46,38.65,55.42,59.4,30.18,36.9,39.3,85.15,24.19,128S730.46,514.46,681.05,532"/></g><path class="cls-3" d="M150.23,503l-1,7.67c3-.16,5.16-1.22,6.13-2.42a2.32,2.32,0,0,0,.44-2.39C155.19,504.11,152.66,503.34,150.23,503Z"/><path class="cls-4" d="M191.23,490c-2.33-6.65-9.23-9.19-15.4-10.13-13.5,21.11-30.37,25.32-39.6,25.88l2.68,15.82h30.43L171,509c7.7-.14,14.53-2.78,18.19-7.29A11.77,11.77,0,0,0,191.23,490Zm-7.92,6.91c-1.81,2.24-5.85,4.19-11.37,4.49l1.83-14.22c4.52.55,9.2,2,10.36,5.31A4.27,4.27,0,0,1,183.31,496.92Z"/><path class="cls-5" d="M175.83,479.88c-.37-.06-.74-.13-1.1-.17l1.84-14.27a1.41,1.41,0,0,0-1.4-1.59H131a1.58,1.58,0,0,0-1.55,1.84l6.81,40.07C145.46,505.2,162.33,501,175.83,479.88Z"/><path class="cls-6" d="M155.54,457.93c-4.39-2.34-8.58-10.76-10.31-14.65s-2.24-8.56-.32-12.36c1.62-3.22,4.73-5.43,6.66-8.47a13.72,13.72,0,0,0,1.69-10.69c-1.32-5.07-5.47-9.11-6.43-14.25-1.11-6,2.39-11.84,3.93-17.78a28.31,28.31,0,0,0-.79-16.67c4.29,2.55,6.85,7.15,9.22,11.54,2.16,4,4.38,8.29,4.07,12.83-.2,2.86-1.39,5.53-2.39,8.21-1.81,4.86-3.05,10.18-1.76,15.2,2,7.58,9.43,13.51,9.14,21.34-.18,4.64-3.19,8.76-6.81,11.66-2.36,1.88-5.09,3.46-6.74,6s-1.72,6.49.84,8.1"/><path class="cls-7" d="M425.73,228.49a102.24,102.24,0,0,0-7.53,24.16c-1.31,8.11-1.76,16.37-3.77,24.34a105.39,105.39,0,0,1-8,20.23,4.36,4.36,0,0,0-.59,1.87c0,1.3,1.12,2.28,2.17,3a58.53,58.53,0,0,0,56,6.66"/><ellipse class="cls-5" cx="421.51" cy="263.76" rx="15.62" ry="19.42"/><ellipse class="cls-8" cx="428.86" cy="266.51" rx="15.62" ry="19.42"/><path class="cls-9" d="M464,308.86l-32.6-68.39c-3.61,12-7.22,24-10.62,36.11a67.39,67.39,0,0,0-2.63,12.22,35.27,35.27,0,0,0,.74,10.89,20.45,20.45,0,0,0,4.61,9.48,15.63,15.63,0,0,0,1.43,1.27A58.38,58.38,0,0,0,464,308.86Z"/><path class="cls-10" d="M457.15,306.5c1.48,8.3,2.7,17.73-2.46,24.4-1.13,1.46-2.6,2.89-2.68,4.74-.1,2.42,2.21,4.2,4.38,5.28a34.53,34.53,0,0,0,27.28,1.42,4.55,4.55,0,0,0,2-1.2c1.1-1.37.4-3.37-.28-5a60.1,60.1,0,0,1,.48-47"/><path class="cls-11" d="M456.42,304.09c1.44,5.83,2.38,11.44,1.75,17.41a.71.71,0,0,0,.1.59c.19.2.52.12.78,0a24.11,24.11,0,0,0,5.53-2.54A24.71,24.71,0,0,0,472.2,311a25.43,25.43,0,0,0,2.64-13.2"/><path class="cls-10" d="M437.22,229.61c-5.92,6.61-7.3,16-8.08,24.86-.68,7.78-1.1,15.65,0,23.39s3.82,15.4,8.83,21.4a33,33,0,0,0,7.36,6.53,18.79,18.79,0,0,0,6.19,2.75c4.22.91,8.58-.3,12.68-1.63,9.35-3,19-7.13,24.76-15.09,7.52-10.37,12.49-37.66,14.45-50.32"/><path class="cls-11" d="M425.43,237.66a63.46,63.46,0,0,0,31,14.53,109.18,109.18,0,0,0,20.05,1,35.34,35.34,0,0,0,7.48-.73,13.68,13.68,0,0,0,8.44-5.69,9.22,9.22,0,0,0,.14-9.86"/><path class="cls-7" d="M500.92,203.08c-16.68-8.06-40.82-6.39-52.95.56s-17.16,13.16-23.49,27.63c-.38.86-2.57,6.18-2.24,7.07a2.53,2.53,0,0,0,1.63,1.69c15,5.72,28.16,6.75,44.18,7.55,5.33.26,10.75.27,15.94-1,7.34,24.61,3.52,42.25-8.72,64.83,8,3.36,38.93,5.29,53.67-6.12a35.4,35.4,0,0,0,9.58-10.64c5.86-10.7,3.34-23.89.16-35.66-2.37-8.76-5.06-17.51-9.36-25.51-6.62-12.27-15.6-24.88-28.4-30.41"/><path class="cls-6" d="M442.51,283.84c1.22,3.76,2.62,7.22,5.94,9.35s7.71,1.87,11.26.21,6.92-5.83,9.4-8.86a102.54,102.54,0,0,1-26.6-.7"/><path class="cls-9" d="M511.65,303.62a7.5,7.5,0,0,1-2.41-3c-.94-2.33-.13-4.95.6-7.36a39.47,39.47,0,0,0,2-12.54A18.45,18.45,0,0,0,507.53,269c-4.12-4.58-10.6-6-16.63-7.23l-3.81-.77c2.26,17.65-2,32.5-11.75,50.41,8,3.36,38.93,5.29,53.67-6.12.54-.42,1-.87,1.57-1.31a21.91,21.91,0,0,1-2.78,1.4C522.52,307.45,516.09,307.14,511.65,303.62Z"/><path class="cls-12" d="M457.33,261.64a7.39,7.39,0,0,0-7.38-.06l-.8-1.18a8.72,8.72,0,0,1,8.85,0Z"/><polygon class="cls-12" points="487.15 261.25 483.43 261.18 483.43 259.76 486.96 259.76 487.15 261.25"/><polyline class="cls-11" points="452.53 264.21 448.02 278.03 455.12 278.61"/><path class="cls-9" d="M466.61,253.22a8.58,8.58,0,0,1,.9-.47l.55-.25-.2.09a14.17,14.17,0,0,1,1.42-.52,15.86,15.86,0,0,1,1.8-.47c.4-.08.79-.15,1.19-.2l-.23,0a16.51,16.51,0,0,1,3.44-.11c.36,0,.71.06,1.06.1l-.22,0a17.49,17.49,0,0,1,3.41.83c.34.12.67.25,1,.39l-.21-.08a19.87,19.87,0,0,1,3.53,1.94.9.9,0,0,0,.66.09.91.91,0,0,0,.51-.39.9.9,0,0,0,.09-.66,1,1,0,0,0-.4-.51,19.58,19.58,0,0,0-5.7-2.73,17.77,17.77,0,0,0-5.12-.7,18,18,0,0,0-7.18,1.58,9.58,9.58,0,0,0-1.15.59h0a.88.88,0,0,0-.39.51.87.87,0,0,0,.6,1.05.86.86,0,0,0,.65-.09Z"/><path class="cls-9" d="M443.63,253.32a9.36,9.36,0,0,0-.79-.62l-.5-.35.18.13c-.42-.28-.85-.54-1.3-.78s-1.11-.55-1.69-.79c-.37-.15-.75-.29-1.13-.41l.22.07a16.81,16.81,0,0,0-3.36-.74c-.35,0-.71-.06-1.06-.08h.22a17.1,17.1,0,0,0-3.5.19l-1.06.2.21,0c-1.31.29.44,1.18-2,.55-.23-.06,1.57-2.33,3.68-2.54a17.53,17.53,0,0,1,5.16.25,18.08,18.08,0,0,1,4.05,1.31,18.32,18.32,0,0,1,2.72,1.55,11.24,11.24,0,0,1,1,.79h0a.9.9,0,0,1,.29.57.84.84,0,0,1-.2.63.85.85,0,0,1-1.21.09Z"/><path class="cls-9" d="M467,262.61l0,0,0-.05h0s0,.06,0,0l0,0c.11-.14.23-.27.34-.4s.36-.37.55-.54.23-.2.35-.3l.09-.08,0,0h0s0,0,0,0l0,0,.2-.15a6.75,6.75,0,0,1,.93-.56l.26-.12.06,0h0c.05,0,0,0,0,0l.14,0c.19-.08.38-.14.57-.2s.41-.1.61-.13h.27l.33,0a5.3,5.3,0,0,1,.69,0l.18,0h.1c-.06,0,0,0,0,0a2.38,2.38,0,0,1,.37.06,5.38,5.38,0,0,1,.76.21,3.12,3.12,0,0,1,.39.15h0c.06,0,0,0,0,0l.11.05.2.09a9.82,9.82,0,0,1,1.68,1.05h0s0,0,0,0l0,0,.11.08.22.18a.26.26,0,0,0,.35,0,.25.25,0,0,0,0-.35,10.69,10.69,0,0,0-1.76-1.23,7.45,7.45,0,0,0-1.65-.68,6,6,0,0,0-1.52-.22,5.73,5.73,0,0,0-2.58.54,5.91,5.91,0,0,0-1,.54,7.56,7.56,0,0,0-.85.64,8.08,8.08,0,0,0-.6.57,5.82,5.82,0,0,0-.4.45,3.17,3.17,0,0,0-.21.27h0a.24.24,0,0,0,.09.34.26.26,0,0,0,.34-.09Z"/><path class="cls-9" d="M431.56,261.33l0,0,0,0v0l0,0,0,0c.11-.14.22-.27.34-.4a6.88,6.88,0,0,1,.54-.54l.35-.3.09-.07,0,0h0s0,0,0,0l0,0,.2-.14a8.91,8.91,0,0,1,.93-.57l.26-.12.07,0h0l.14-.06c.19-.07.38-.14.57-.19s.41-.1.62-.14h.26l.33,0a5.3,5.3,0,0,1,.69,0h.28c-.05,0,0,0,0,0l.36.06c.26.06.51.13.76.21l.39.15.05,0h0l.1,0,.2.09a9.67,9.67,0,0,1,1.68,1.05h0s0,0,0,0l.05,0,.11.08.22.18a.25.25,0,0,0,.35-.35,10.87,10.87,0,0,0-1.76-1.23,8.11,8.11,0,0,0-1.64-.68,6.56,6.56,0,0,0-1.52-.22,5.77,5.77,0,0,0-1.38.14,6.36,6.36,0,0,0-1.21.4,7.94,7.94,0,0,0-1,.54,10.34,10.34,0,0,0-.84.64,8.22,8.22,0,0,0-.61.57q-.21.22-.39.45a2.47,2.47,0,0,0-.21.27h0a.25.25,0,1,0,.43.25Z"/><path class="cls-12" d="M436.56,275a13.49,13.49,0,1,1,13.49-13.49A13.51,13.51,0,0,1,436.56,275Zm0-25.43a11.94,11.94,0,1,0,11.94,11.94A11.95,11.95,0,0,0,436.56,249.59Z"/><path class="cls-12" d="M470.5,275A13.49,13.49,0,1,1,484,261.53,13.51,13.51,0,0,1,470.5,275Zm0-25.43a11.94,11.94,0,1,0,11.93,11.94A12,12,0,0,0,470.5,249.59Z"/><ellipse class="cls-12" cx="456.58" cy="300.88" rx="4.7" ry="3.67" transform="translate(-26.79 45.26) rotate(-5.51)"/><path class="cls-12" d="M465.07,301.61a46,46,0,0,1-6.35.18l.08-2c24.46,1,43.27-18.78,43.45-19l1.48,1.38C503.55,282.36,487.28,299.46,465.07,301.61Z"/><path class="cls-5" d="M422.74,245.66c2-13.7,9.14-28.8,20.91-36.55,10.54-6.94,24.64-7.38,36.25-2.92,10,3.83,16.63,12.39,19.9,22.36,2.78,8.49,3.15,17.21,3.8,26,.21,2.91,4.77,2.93,4.56,0-.62-8.4-1-16.77-3.26-24.93-3-10.63-9.12-20.39-19-25.73-11.82-6.35-27.48-7-39.69-1.43-9.93,4.56-17.19,13.43-21.79,23.14a66.25,66.25,0,0,0-6,18.81c-.41,2.87,4,4.11,4.39,1.21Z"/><ellipse class="cls-5" cx="503.41" cy="269.24" rx="15.62" ry="19.42"/><ellipse class="cls-8" cx="505.87" cy="269.24" rx="14.84" ry="18.45"/><rect class="cls-13" x="531.51" y="119" width="95.11" height="63.73" rx="4.76"/><rect class="cls-6" x="529.28" y="116.86" width="95.11" height="63.73" rx="4.76"/><path class="cls-2" d="M583.29,128.52a11.34,11.34,0,0,1,4.58,3.85,9.52,9.52,0,0,1,1.66,5.46,9.75,9.75,0,0,1-.76,4,10.8,10.8,0,0,1-1.87,2.94A30,30,0,0,1,584,147.5a23.08,23.08,0,0,0-3.62,3.73,6.76,6.76,0,0,0-1.18,4.07v.79a1.57,1.57,0,0,1-1.53,1.53h-2.09a1.44,1.44,0,0,1-1.08-.46,1.47,1.47,0,0,1-.45-1.07V154.9a9.43,9.43,0,0,1,.79-4,11.08,11.08,0,0,1,1.9-2.92c.73-.79,1.72-1.75,3-2.88a23.32,23.32,0,0,0,3.54-3.59,6,6,0,0,0,1.16-3.7,5,5,0,0,0-2.26-4.3,9.21,9.21,0,0,0-5.43-1.59,8.23,8.23,0,0,0-5.09,1.53,8.05,8.05,0,0,0-2.83,4.7,1.49,1.49,0,0,1-.53.9,1.47,1.47,0,0,1-.94.34h-2.43a1.26,1.26,0,0,1-.9-.37,1,1,0,0,1-.34-.87,11.6,11.6,0,0,1,1.67-5.21,11.42,11.42,0,0,1,4.41-4.18,14,14,0,0,1,7-1.64A15.21,15.21,0,0,1,583.29,128.52Zm-4,38.31a1.44,1.44,0,0,1-1.07.46H575a1.44,1.44,0,0,1-1.07-.46,1.48,1.48,0,0,1-.46-1.07v-3.22a1.48,1.48,0,0,1,.46-1.08A1.47,1.47,0,0,1,575,161h3.23a1.54,1.54,0,0,1,1.52,1.53v3.22A1.47,1.47,0,0,1,579.3,166.83Z"/><path class="cls-13" d="M423.75,59.44H347.94a9.66,9.66,0,0,0-9.65,9.66v44.42a9.65,9.65,0,0,0,9.65,9.65h53.77l20.37,14.46V123.17h1.67a9.65,9.65,0,0,0,9.65-9.65V69.1A9.66,9.66,0,0,0,423.75,59.44Z"/><path class="cls-6" d="M421.47,57.38H345.66A9.65,9.65,0,0,0,336,67v44.42a9.65,9.65,0,0,0,9.65,9.65h53.77l20.37,14.46V121.1h1.67a9.65,9.65,0,0,0,9.65-9.65V67A9.65,9.65,0,0,0,421.47,57.38Z"/><path class="cls-2" d="M421.15,73.83H346a.76.76,0,0,0,0,1.52h75.17a.76.76,0,0,0,0-1.52Z"/><path class="cls-2" d="M421.15,83.74H346a.76.76,0,0,0,0,1.52h75.17a.76.76,0,0,0,0-1.52Z"/><path class="cls-2" d="M398.7,93.64H346a.76.76,0,0,0,0,1.52H398.7a.76.76,0,0,0,0-1.52Z"/><path class="cls-2" d="M398.7,103.55H346a.76.76,0,0,0,0,1.52H398.7a.76.76,0,0,0,0-1.52Z"/><path class="cls-13" d="M383.14,138.62H333.9a6.27,6.27,0,0,0-6.27,6.27v28.86A6.27,6.27,0,0,0,333.9,180h34.93l13.23,9.39V180h1.08a6.28,6.28,0,0,0,6.28-6.27V144.89A6.28,6.28,0,0,0,383.14,138.62Z"/><path class="cls-6" d="M381.66,137.28H332.42a6.27,6.27,0,0,0-6.27,6.27v28.86a6.27,6.27,0,0,0,6.27,6.27h34.93l13.23,9.39v-9.39h1.08a6.28,6.28,0,0,0,6.28-6.27V143.55A6.28,6.28,0,0,0,381.66,137.28Z"/><path class="cls-2" d="M381.46,148H332.62a.5.5,0,0,0,0,1h48.84a.5.5,0,0,0,0-1Z"/><path class="cls-2" d="M381.46,154.4H332.62a.5.5,0,0,0,0,1h48.84a.5.5,0,0,0,0-1Z"/><path class="cls-2" d="M366.87,160.84H332.62a.5.5,0,0,0,0,1h34.25a.5.5,0,0,0,0-1Z"/><path class="cls-2" d="M366.87,167.28H332.62a.49.49,0,0,0,0,1h34.25a.49.49,0,0,0,0-1Z"/><rect class="cls-13" x="200.53" y="209.87" width="95.11" height="63.73" rx="4.76"/><rect class="cls-6" x="197.71" y="207.34" width="95.11" height="63.73" rx="4.76"/><path class="cls-2" d="M236.58,222.39c.68,7.21,8.38,6.07,8.38,6.07,4.71.69,4,11,4,11s-.5,10.31-5.25,10.45c0,0-7.51-2-9,5.05s2.76,10.71,9.73,10.23c0,0,9.64-.93,11.08-25.57.8-25-8.06-26.24-8.06-26.24C240.57,212.07,235.91,215.18,236.58,222.39Z"/><path class="cls-14" d="M543.44,521c22.8-11.15,38.58-32.42,50.76-54.28,22.08-39.65,35.41-85.54,28-130.09-1.45-8.74-4.62-18.51-12.92-22.09a18.91,18.91,0,0,0-12.6-.46c-8.13,2.35-14.41,8.91-18.2,16.3s-5.41,15.63-6.92,23.76c-10.73,57.6-18.31,116.24-38.87,171.24"/><path class="cls-15" d="M539.48,522c17.64-8.2,37.84-33.35,47.64-50.15,17.79-30.46,31-62.09,26.41-97-.89-6.85-3.07-14.55-9.32-17.52a14,14,0,0,0-9.58-.65c-6.25,1.65-11.2,6.63-14.26,12.32s-4.5,12.08-5.85,18.4c-9.56,44.72-16.75,90.32-33.73,132.8"/><path class="cls-6" d="M601.49,338.56c-1.88,13.78-3.85,27.56-6.23,41.27s-5.12,27.13-8.59,40.51a276.66,276.66,0,0,1-11.94,36.3,265.87,265.87,0,0,1-17,33.91A235.3,235.3,0,0,1,536.31,521c-1,1.16-1.95,2.31-2.94,3.45-.21.24.15.6.36.35A228.92,228.92,0,0,0,555.6,495a258.76,258.76,0,0,0,30.21-69.5c3.69-13.43,6.62-27.06,9.09-40.76s4.52-27.51,6.43-41.31c.22-1.63.45-3.26.67-4.88,0-.32-.47-.32-.51,0Z"/><path class="cls-14" d="M552.33,518.55a331.16,331.16,0,0,0,53.17,7.82c29.19,1.69,65,.64,88.16-17.19,7.52-5.78,14.08-15.25,11-24.23-1.95-5.7-7.47-9.61-13.3-11.15s-12-1.06-18-.37a270.69,270.69,0,0,0-121.08,45.12"/><path class="cls-15" d="M558.91,517.14a270.78,270.78,0,0,0,41.25,5.66c22.66,1.2,50.43.37,68.45-12.75,5.84-4.26,10.95-11.22,8.58-17.8-1.51-4.18-5.79-7.05-10.31-8.17s-9.29-.76-13.94-.24a218.22,218.22,0,0,0-94,33.3"/><path class="cls-6" d="M680.72,493.1q-12.18,2.75-24.36,5.48-12.45,2.78-24.92,5.44t-25.19,5.15q-12.54,2.46-25.12,4.62-12.42,2.13-24.9,3.85l-3,.41c-.36.05-.35.62,0,.57Q565.65,517,578,514.89q12.56-2.1,25-4.52t25.2-5.1q12.56-2.64,25.09-5.44,12.3-2.73,24.56-5.51l3-.68c.35-.08.18-.62-.17-.54Z"/><path class="cls-14" d="M545.35,516.17c33.14-1.73,70.11-21.4,96.66-41.31,17.48-13.11,34.74-27,47.64-44.64a125.23,125.23,0,0,0,21.58-48.69c2.36-11.48,2-25.75-8-32-5.35-3.38-12.34-3.39-18.31-1.27s-11.06,6.13-15.69,10.46C656.1,371,646,386.2,635.72,401.05c-26.74,38.66-59.94,79.3-90.37,115.12"/><path class="cls-15" d="M554.29,511.5c25.6-1.28,54.15-15.77,74.66-30.43,13.49-9.65,26.83-19.89,36.79-32.87a90.22,90.22,0,0,0,16.67-35.86c1.82-8.46,1.51-19-6.14-23.58-4.14-2.5-9.53-2.51-14.14-.94s-8.55,4.51-12.12,7.7c-10.18,9.08-18,20.26-25.92,31.2-20.65,28.47-46.29,58.39-69.8,84.78"/><path class="cls-6" d="M690.39,377.23l-29.13,35.6c-8.62,10.53-17.17,21.12-26,31.5-8.1,9.56-16.44,18.93-25.32,27.78a230.91,230.91,0,0,1-28.2,24.25,151.57,151.57,0,0,1-32.24,17.92c-1.41.57-2.83,1.1-4.26,1.61-.34.13-.19.68.15.55a147.59,147.59,0,0,0,32.66-16.81,216.85,216.85,0,0,0,28.6-23.5c9.08-8.74,17.57-18.07,25.78-27.62,8.67-10.07,17-20.41,25.45-30.69l29.22-35.71,3.66-4.48c.23-.28-.17-.68-.4-.4Z"/><g class="cls-16"><path class="cls-6" d="M652.26,482.87c6.66-2.06,12.61-5.8,18.21-9.89,3-2.17,5.85-4.42,8.76-6.66,3.17-2.45,6.34-4.91,9.47-7.42q8.94-7.14,17.49-14.75t16.75-15.7q8.16-8.07,15.9-16.56l1.87-2.07c.44-.49-.28-1.22-.72-.73q-7.62,8.48-15.68,16.54t-16.51,15.7q-8.46,7.64-17.31,14.83-9,7.33-18.37,14.32c-5.5,4.14-11.26,8.15-17.75,10.59-.78.29-1.58.56-2.38.81a.51.51,0,0,0,.27,1Z"/><path class="cls-14" d="M737.83,411.75a13.83,13.83,0,0,1,6.87-10.7c1.54-.87,3.66-1.35,4.95-.14a3.33,3.33,0,0,1,.56,3.64,8.14,8.14,0,0,1-2.47,3,30.16,30.16,0,0,1-10.11,5.53"/><path class="cls-14" d="M733.64,417c-1.85-1.2-2.68-3.47-3.08-5.64a10.55,10.55,0,0,1,0-4.61,5,5,0,0,1,2.85-3.46,1.28,1.28,0,0,1,.69-.11,1.24,1.24,0,0,1,.6.31,4.34,4.34,0,0,1,1.42,3,10.45,10.45,0,0,1-.41,3.38,35.93,35.93,0,0,1-2.7,7.32"/><path class="cls-14" d="M724.1,426a5,5,0,0,1-1.92-1.43c-1.53-1.57-3.14-3.3-3.43-5.47a8,8,0,0,1,.36-3.28,6.51,6.51,0,0,1,2.84-4.18,2.37,2.37,0,0,1,1.66-.28,2.29,2.29,0,0,1,1.48,1.4,5.88,5.88,0,0,1,.32,2.08A37.18,37.18,0,0,1,724.1,426"/><path class="cls-14" d="M713.51,437c-.19.17-.5,0-.71-.15a15.56,15.56,0,0,1-4.66-5.47,10.44,10.44,0,0,1-.86-7,4,4,0,0,1,1.77-2.66,3.33,3.33,0,0,1,3.83.87,7,7,0,0,1,1.57,3.85c.51,3.75-.35,7.54-1.2,11.24"/><path class="cls-14" d="M701.63,448a6.35,6.35,0,0,1-2.62-2.1,19.34,19.34,0,0,1-4.19-7.15,8.93,8.93,0,0,1,1.32-7.92,3.34,3.34,0,0,1,2.86-1.43,3.4,3.4,0,0,1,2.06,1.37c2.16,2.7,2.23,6.49,1.89,9.93a57.38,57.38,0,0,1-1,6.39"/><path class="cls-14" d="M686.35,460.14a20.31,20.31,0,0,1-7.66-15.27c-.06-2.27.57-4.95,2.68-5.78a4.13,4.13,0,0,1,4.09.89,8,8,0,0,1,2.22,3.73c1.56,4.93.59,10.25-.39,15.33"/><path class="cls-14" d="M724.56,426.63c3.39-1.49,7.28-1.08,11-.54.89.13,1.92.37,2.29,1.19a2.16,2.16,0,0,1-.56,2.22,5.57,5.57,0,0,1-3.75,1.72,9.82,9.82,0,0,1-4.14-.72,12.74,12.74,0,0,1-5.44-3.71"/><path class="cls-14" d="M733.84,416.64c3.4-1.48,7.29-1.07,10.95-.53.89.13,1.92.37,2.3,1.19a2.13,2.13,0,0,1-.57,2.21,5.5,5.5,0,0,1-3.75,1.73,9.82,9.82,0,0,1-4.14-.72,12.64,12.64,0,0,1-5.43-3.72"/><path class="cls-14" d="M713.63,436.76a15.65,15.65,0,0,1,13.67.14,3.72,3.72,0,0,1,2.16,2.15,2.64,2.64,0,0,1-.81,2.47,4.85,4.85,0,0,1-2.43,1.17,10.78,10.78,0,0,1-6.16-.68,21,21,0,0,1-5.33-3.31,3.68,3.68,0,0,1-1.49-1.94"/><path class="cls-14" d="M701.78,447.25c4.13-1.44,8.68-.6,12.91.52,1.63.43,3.42,1,4.24,2.51,1,1.85-.1,4.34-2,5.34a7.66,7.66,0,0,1-6.14.1,17.58,17.58,0,0,1-8.9-7.6"/><path class="cls-14" d="M687.1,459.15a15.4,15.4,0,0,1,9.82.5,45.48,45.48,0,0,1,8.81,4.7c1.36.86,2.88,2,3,3.57a3.35,3.35,0,0,1-1.45,2.84,6.61,6.61,0,0,1-3.09,1.1c-5.68.78-11.44-2.25-14.94-6.78-1.49-1.93-2.68-4.29-2.43-6.72"/><path class="cls-14" d="M669,474c-.17.29-.61.08-.86-.15a18.49,18.49,0,0,1-5.48-16.07,8.43,8.43,0,0,1,1.07-3.19,8.72,8.72,0,0,1,4.12-3.05,1.68,1.68,0,0,1,2.44.69,14.85,14.85,0,0,1,2.57,10.7,26.81,26.81,0,0,1-4,10.48"/><path class="cls-14" d="M668,473.93a14.67,14.67,0,0,1,7.9-.86,38.72,38.72,0,0,1,7.74,2.17,12.51,12.51,0,0,1,5.12,2.86c1.35,1.44,1.94,3.79.82,5.42s-3.3,1.89-5.23,1.85a19.32,19.32,0,0,1-10.7-3.21,12.64,12.64,0,0,1-5.52-9.46"/></g><g class="cls-16"><path class="cls-6" d="M620.12,428.38c4.25-5.54,6.93-12,9.12-18.61,1.16-3.48,2.22-7,3.29-10.5,1.17-3.84,2.33-7.68,3.43-11.54q3.15-11,5.72-22.15t4.56-22.5q2-11.31,3.38-22.71c.12-.92.22-1.85.33-2.77.08-.65-.93-.83-1-.17q-1.31,11.31-3.21,22.56t-4.37,22.36q-2.48,11.13-5.53,22.11c-2.08,7.48-4.33,14.91-6.68,22.31-2.09,6.56-4.46,13.16-8.34,18.91-.47.7-1,1.38-1.48,2.05-.4.52.39,1.17.79.65Z"/><path class="cls-14" d="M648.72,320.84a13.84,13.84,0,0,1-.6-12.7c.76-1.6,2.21-3.22,4-3a3.33,3.33,0,0,1,2.56,2.64,7.94,7.94,0,0,1-.29,3.86,30.21,30.21,0,0,1-5,10.37"/><path class="cls-14" d="M648.32,327.53c-2.2.09-4.19-1.29-5.77-2.82a10.38,10.38,0,0,1-2.69-3.75,5,5,0,0,1,.31-4.47,1.47,1.47,0,0,1,.5-.49,1.43,1.43,0,0,1,.68-.09,4.37,4.37,0,0,1,2.89,1.64,10.46,10.46,0,0,1,1.63,3,36.45,36.45,0,0,1,2,7.53"/><path class="cls-14" d="M645.79,340.44a5.09,5.09,0,0,1-2.39-.06c-2.16-.39-4.47-.87-6-2.47a8.08,8.08,0,0,1-1.6-2.88,6.5,6.5,0,0,1-.11-5.06,2.4,2.4,0,0,1,1.2-1.19,2.26,2.26,0,0,1,2,.29,5.52,5.52,0,0,1,1.46,1.51,36.57,36.57,0,0,1,5.4,9.86"/><path class="cls-14" d="M643.48,355.47c-.06.26-.39.31-.66.3a15.57,15.57,0,0,1-7-1.76,10.46,10.46,0,0,1-4.79-5.25,4,4,0,0,1-.1-3.2,3.33,3.33,0,0,1,3.63-1.51,6.93,6.93,0,0,1,3.5,2.24c2.6,2.76,4.09,6.35,5.54,9.85"/><path class="cls-14" d="M640.17,371.32a6.32,6.32,0,0,1-3.36-.19,19.38,19.38,0,0,1-7.55-3.4,8.92,8.92,0,0,1-3.51-7.23,3.34,3.34,0,0,1,1.51-2.82,3.39,3.39,0,0,1,2.47-.07c3.32.95,5.57,4,7.28,7a55.94,55.94,0,0,1,2.89,5.8"/><path class="cls-14" d="M634.77,390.1a20.36,20.36,0,0,1-15.1-8c-1.35-1.82-2.39-4.37-1.16-6.27a4.13,4.13,0,0,1,3.85-1.64,8,8,0,0,1,4,1.76c4.12,3.11,6.42,8,8.56,12.72"/><path class="cls-14" d="M646.51,340.66c1.91-3.18,5.32-5.1,8.62-6.78a2.78,2.78,0,0,1,2.56-.36,2.16,2.16,0,0,1,.82,2.14,5.5,5.5,0,0,1-2.06,3.57,10,10,0,0,1-3.79,1.82,12.77,12.77,0,0,1-6.58.11"/><path class="cls-14" d="M648.3,327.14c1.91-3.17,5.32-5.1,8.62-6.77a2.78,2.78,0,0,1,2.56-.36,2.15,2.15,0,0,1,.82,2.13,5.54,5.54,0,0,1-2.06,3.58,9.85,9.85,0,0,1-3.79,1.81,12.66,12.66,0,0,1-6.58.11"/><path class="cls-14" d="M643.47,355.25a15.68,15.68,0,0,1,11.22-7.81,3.74,3.74,0,0,1,3,.51,2.63,2.63,0,0,1,.77,2.48,4.81,4.81,0,0,1-1.3,2.36,10.78,10.78,0,0,1-5.42,3,21.21,21.21,0,0,1-6.26.4,3.78,3.78,0,0,1-2.35-.73"/><path class="cls-14" d="M639.88,370.66c2.53-3.56,6.73-5.51,10.82-7.05,1.59-.59,3.39-1.14,4.92-.41,1.9.92,2.43,3.6,1.5,5.49a7.77,7.77,0,0,1-5,3.64,17.56,17.56,0,0,1-11.65-1.05"/><path class="cls-14" d="M634.8,388.87a15.28,15.28,0,0,1,8.29-5.28,45.14,45.14,0,0,1,9.91-1.27c1.61-.09,3.48-.07,4.52,1.17a3.35,3.35,0,0,1,.47,3.14,6.7,6.7,0,0,1-1.89,2.7c-4.18,3.91-10.62,4.78-16.11,3.12-2.33-.71-4.66-1.95-5.87-4.08"/><path class="cls-14" d="M628.65,411.43c0,.33-.45.42-.78.38a18.48,18.48,0,0,1-13.78-9.94,8.36,8.36,0,0,1-1-3.21,8.71,8.71,0,0,1,1.59-4.88,1.69,1.69,0,0,1,2.39-.85,14.89,14.89,0,0,1,8.29,7.24A26.92,26.92,0,0,1,628.23,411"/><path class="cls-14" d="M627.77,412a14.59,14.59,0,0,1,6-5.27,39.3,39.3,0,0,1,7.55-2.72,12.7,12.7,0,0,1,5.84-.63c1.94.39,3.78,2,3.8,3.94s-1.59,3.46-3.18,4.54a19.31,19.31,0,0,1-10.59,3.58,12.61,12.61,0,0,1-10-4.51"/></g><path class="cls-6" d="M408.76,440.91c-1.06-6.9-3.9-13.33-7.13-19.46-1.71-3.25-3.52-6.44-5.31-9.64-2-3.5-3.93-7-5.95-10.46q-5.76-9.87-12-19.44T365.23,363q-6.8-9.26-14.06-18.15l-1.77-2.15c-.42-.51-1.25.1-.82.61q7.26,8.77,14.07,17.92t13.12,18.63q6.32,9.48,12.14,19.29c4,6.67,7.77,13.44,11.49,20.25,3.29,6.05,6.42,12.33,7.88,19.11.18.82.33,1.65.46,2.48.1.65,1.12.53,1-.12Z"/><path class="cls-14" d="M350.89,345.87a13.84,13.84,0,0,1-9.59-8.35c-.63-1.66-.79-3.82.59-4.93a3.33,3.33,0,0,1,3.68,0,8.08,8.08,0,0,1,2.59,2.88,30.17,30.17,0,0,1,4,10.81"/><path class="cls-14" d="M355.44,350.78c-1.46,1.65-3.83,2.14-6,2.22a10.36,10.36,0,0,1-4.56-.65,5,5,0,0,1-3-3.32,1.38,1.38,0,0,1,0-.7,1.42,1.42,0,0,1,.4-.55,4.42,4.42,0,0,1,3.19-1,10.9,10.9,0,0,1,3.28.9,36.06,36.06,0,0,1,6.84,3.74"/><path class="cls-14" d="M363,361.54a5.06,5.06,0,0,1-1.69,1.69c-1.78,1.28-3.72,2.62-5.91,2.6a7.92,7.92,0,0,1-3.19-.84,6.49,6.49,0,0,1-3.73-3.42,2.37,2.37,0,0,1,0-1.68,2.26,2.26,0,0,1,1.6-1.26,5.49,5.49,0,0,1,2.1,0A36.73,36.73,0,0,1,363,361.54"/><path class="cls-14" d="M372.28,373.61c.14.22-.06.5-.25.68a15.62,15.62,0,0,1-6.09,3.81,10.43,10.43,0,0,1-7.1-.17,4.07,4.07,0,0,1-2.38-2.14,3.34,3.34,0,0,1,1.42-3.67,6.89,6.89,0,0,1,4-1c3.79,0,7.41,1.43,10.94,2.81"/><path class="cls-14" d="M381.43,387a6.3,6.3,0,0,1-2.47,2.3,19.26,19.26,0,0,1-7.67,3.09,8.89,8.89,0,0,1-7.65-2.46,2.83,2.83,0,0,1,.66-4.87c3-1.75,6.74-1.26,10.09-.42a55.45,55.45,0,0,1,6.19,1.93"/><path class="cls-14" d="M391.25,403.86A20.33,20.33,0,0,1,375,409.21c-2.25-.27-4.81-1.29-5.33-3.49a4.15,4.15,0,0,1,1.48-3.92,8.06,8.06,0,0,1,4-1.65c5.1-.82,10.23.91,15.1,2.62"/><path class="cls-14" d="M363.67,361.17c-1-3.57,0-7.36,1.07-10.91.26-.86.65-1.84,1.51-2.1a2.17,2.17,0,0,1,2.11.89,5.54,5.54,0,0,1,1.16,4,9.86,9.86,0,0,1-1.32,4,12.66,12.66,0,0,1-4.47,4.83"/><path class="cls-14" d="M355.15,350.53c-1-3.58,0-7.37,1.07-10.91.26-.86.65-1.85,1.51-2.1a2.17,2.17,0,0,1,2.11.89,5.53,5.53,0,0,1,1.16,4,10.07,10.07,0,0,1-1.32,4,12.66,12.66,0,0,1-4.47,4.83"/><path class="cls-14" d="M372.1,373.47A15.66,15.66,0,0,1,374.23,360a3.73,3.73,0,0,1,2.44-1.82A2.65,2.65,0,0,1,379,359.3a4.93,4.93,0,0,1,.8,2.57,10.89,10.89,0,0,1-1.58,6,21.07,21.07,0,0,1-4.05,4.79,3.72,3.72,0,0,1-2.14,1.19"/><path class="cls-14" d="M380.75,386.72c-.82-4.3.67-8.68,2.39-12.7.67-1.55,1.52-3.24,3.11-3.83,2-.74,4.28.73,5,2.72a7.72,7.72,0,0,1-.8,6.09,17.53,17.53,0,0,1-8.82,7.69"/><path class="cls-14" d="M390.38,403a15.32,15.32,0,0,1,1.92-9.63,45.56,45.56,0,0,1,5.94-8c1.06-1.23,2.36-2.57,4-2.46a3.32,3.32,0,0,1,2.59,1.84,6.72,6.72,0,0,1,.64,3.22c-.06,5.73-3.89,11-8.89,13.79-2.13,1.2-4.64,2-7,1.43"/><path class="cls-14" d="M402.42,423c.26.21,0,.62-.27.83a18.45,18.45,0,0,1-16.7,3.08,8.19,8.19,0,0,1-3-1.52,8.77,8.77,0,0,1-2.42-4.52,2.22,2.22,0,0,1-.07-1.22,2.08,2.08,0,0,1,1.11-1.09,14.83,14.83,0,0,1,11-1,26.87,26.87,0,0,1,9.79,5.44"/><path class="cls-14" d="M402.21,424a14.6,14.6,0,0,1,.31-7.94,38.38,38.38,0,0,1,3.26-7.33,12.81,12.81,0,0,1,3.58-4.66c1.63-1.12,4-1.36,5.48,0s1.4,3.54,1.07,5.44a19.32,19.32,0,0,1-4.73,10.12A12.63,12.63,0,0,1,401,423.74"/><path class="cls-17" d="M483.74,331.81c20.45.87,42.6,7,57.57,21a10.48,10.48,0,0,1,3.07,4.12c.81,2.4,0,5-.79,7.42a151.35,151.35,0,0,0-1.35,86.47c2.09,7.36,4.75,14.64,5.47,22.26s-.8,15.87-6.06,21.42a28.75,28.75,0,0,1-8,5.65c-16.37,8.28-35.61,8-53.94,7.21-11.31-.47-22.72-1.06-33.61-4.15s-21.33-8.94-27.95-18.12c-6.82-9.47-9-21.5-9.82-33.15-2-26.43,1.62-52.94,2.11-79.45.15-7.71,0-15.66-3-22.76,14-9.66,30.67-15.53,47.32-18.84,3.58,4.76,8.6,6.93,14.55,7.24s10.45-1.95,14.5-6.33"/><path class="cls-18" d="M539.05,469.76c-.67-7.62,4.75-16.44,2.82-23.8-4.9-18.72-14.14-36.92-12.15-56.25-4.2,2.11-8,4.89-10.18,9-1.78,3.41-2.23,7.38-2.28,11.25-.08,7.72,1.36,15.38,1.66,23.1s-.66,15.86-5,22.18c-5,7.29-13.66,11-22.1,13.23A166.53,166.53,0,0,1,474.54,472c-6.66,1.05-13.44,1.94-20.14,1.07s-13.37-3.64-17.77-8.87c-7-8.29-6.76-20.33-8-31.19a97.57,97.57,0,0,0-10.55-34.15c-1.67-3.17-3.63-6.37-6.64-8.23h0c-1,19.36-12.24,39.68-10.91,59,.8,11.64,12.57,22.69,18.87,32.16,6.11,9.18,15.76,15,25.81,18.12s20.59,3.68,31,4.15c16.93.76,34.69,1.07,49.82-7.2a26.65,26.65,0,0,0,7.43-5.66C538.31,485.63,539.71,477.38,539.05,469.76Z"/><path class="cls-17" d="M415.89,344.49c6.32,28.09.87,61.24-6.14,89.16-2.09,8.3-1.65,17.39,1.32,21.62s8.39,7,13.25,9.21c11.28,5.2,19.11,11.33,27.72,20.28,3.45,3.59,6.62,7.63,8.11,12.38s1.05,10.33-2.12,14.16c-3,3.67-8,5.18-12.8,5.18s-9.4-1.32-14-2.41a148,148,0,0,0-23.61-3.54c-6.88-.46-13.87-.46-20.49-2.4a39.38,39.38,0,0,1-22.46-17.92,47,47,0,0,1-5.85-28.35A97.26,97.26,0,0,1,362,446.43c5.65-21,13.44-39.45,20.57-60,2.93-8.42,8.29-17.93,13.44-25.21s11.09-15.2,19.88-16.7"/><path class="cls-6" d="M418.19,398c3.81-17.36,2.46-36.57-1.62-53.69-.21-.89-1.58-.51-1.37.38A133,133,0,0,1,418.62,382a95.22,95.22,0,0,1-1.8,15.62c-.2.89,1.18,1.27,1.37.38Z"/><path class="cls-19" d="M470,497.33s-18.81-4.67-25.84-.64-17.72,9.91-17.4,17.4v3.07s50.42,1.47,54.51-3.07"/><path class="cls-17" d="M526.15,342.37c9.22,1.07,19.31,11.82,25.7,21.12s10.72,19.81,15,30.24L591,452.28c2.5,6.05,5,12.16,6.22,18.59a48.21,48.21,0,0,1,.26,16.21c-.68,4.4-2,8.81-4.78,12.3-3.88,4.95-10,7.47-15.9,9.7-12.41,4.72-25.14,9.14-38.39,10.05a149.3,149.3,0,0,1-15.69,0c-14.44-.52-28.94-1.06-43.15-3.69a6.7,6.7,0,0,1-2.91-1,6.79,6.79,0,0,1-1.78-2.66l-4.28-9.37a11.32,11.32,0,0,1-1.46-5.5c.2-2.57,2.09-4.65,4-6.4a63.09,63.09,0,0,1,17-11.23c12.81-5.75,27.43-7.19,39.46-14.42a18.16,18.16,0,0,0,4-3.08c4.44-4.7,4.17-12.29,1.69-18.26s-4.23-11.66-6.67-17.65c-5.44-13.32-8.15-22-8.45-33.4-.42-16.2.79-34.67,6-50"/><path class="cls-18" d="M477.36,487.22a39.8,39.8,0,0,1,4.14,7.51A63.35,63.35,0,0,1,486.7,516c.06.91,1.49.92,1.42,0A65.29,65.29,0,0,0,483,494.6a40.65,40.65,0,0,0-4.39-8.1c-.54-.73-1.78,0-1.23.72Z"/><path class="cls-6" d="M520.26,398.75c-1.19-18.57.24-38.62,6.57-56.19.31-.86-1.06-1.23-1.37-.37-6.37,17.66-7.82,37.89-6.63,56.56.06.91,1.48.92,1.43,0Z"/><rect class="cls-20" x="60.53" y="521.58" width="672.29" height="12.28" rx="3.03"/><rect class="cls-21" x="328.07" y="515.87" width="229.32" height="5.7" rx="0.5"/><polygon class="cls-21" points="428.7 521.58 233.05 521.58 223.6 385.74 415.32 385.74 428.7 521.58"/><polygon class="cls-22" points="422.04 521.58 226.4 521.58 216.94 385.74 408.67 385.74 422.04 521.58"/><circle class="cls-23" cx="319.49" cy="453.66" r="11.68"/><path class="cls-13" d="M218.59,409.22l7.81,112.24H422l-2.61-26.53C316.45,481.62,245.52,431.39,218.59,409.22Z"/></g></g></svg>